<svg viewBox="0 0 512 512" xmlns="http://www.w3.org/2000/svg" xmlns:xlink="http://www.w3.org/1999/xlink">
<linearGradient id="a" gradientTransform="matrix(1 0 0 -1 0 -15338)" gradientUnits="userSpaceOnUse" x1="0" x2="512" y1="-15594" y2="-15594">
<stop offset="0" stop-color="#31d8ff"/>
<stop offset="1" stop-color="#ff80ff"/>
</linearGradient>

<path d="m512 256c0 141.386719-114.613281 256-256 256s-256-114.613281-256-256 114.613281-256 256-256 256 114.613281 256 256zm0 0" fill="url(#a)"/>
<g fill="#fff">
<path d="m256 390.183594c-2.234375 0-4.46875-.5-6.53125-1.5-59.773438-28.917969-105.488281-61.585938-135.886719-97.085938-27.855469-32.539062-42.582031-67.765625-42.582031-101.871094 0-28.359374 9.726562-54.996093 27.386719-75 18.628906-21.101562 44.417969-32.726562 72.613281-32.726562 41.777344 0 70.097656 19.960938 85 34.222656 14.902344-14.261718 43.222656-34.222656 85-34.222656 28.195312 0 53.984375 11.621094 72.613281 32.726562 17.660157 20.003907 27.386719 46.640626 27.386719 75 0 34.105469-14.726562 69.332032-42.582031 101.871094-30.398438 35.5-76.113281 68.164063-135.886719 97.085938-2.0625 1-4.296875 1.5-6.53125 1.5zm-85-278.183594c-39.90625 0-70 33.414062-70 77.726562 0 27.234376 11.898438 54.945313 35.371094 82.359376 26.605468 31.070312 66.828125 60.113281 119.628906 86.386718 52.800781-26.273437 93.023438-55.316406 119.628906-86.386718 23.472656-27.414063 35.371094-55.125 35.371094-82.359376 0-44.3125-30.09375-77.726562-70-77.726562-47.398438 0-71.660156 33.828125-72.667969 35.265625-2.796875 4.085937-7.40625 6.496094-12.355469 6.496094-4.929687 0-9.515624-2.453125-12.316406-6.507813-1.140625-1.621094-25.394531-35.253906-72.660156-35.253906zm0 0"/>
<path d="m341 452h-170c-8.285156 0-15-6.714844-15-15s6.714844-15 15-15h170c8.285156 0 15 6.714844 15 15s-6.714844 15-15 15zm0 0"/></g>
</svg>