<svg width="512" height="512" viewBox="0 0 512 512" xmlns="http://www.w3.org/2000/svg" xmlns:xlink="http://www.w3.org/1999/xlink" id="Capa_1" overflow="hidden"><path d="M512 256C512 114.6 397.4 0 256 0 114.6 0 0 114.6 0 256 0 397.4 114.6 512 256 512 257.5 512 259 512 260.5 511.9L260.5 312.7 205.5 312.7 205.5 248.6 260.5 248.6 260.5 201.4C260.5 146.7 293.9 116.9 342.7 116.9 366.1 116.9 386.2 118.6 392 119.4L392 176.6 358.4 176.6C331.9 176.6 326.7 189.2 326.7 207.7L326.7 248.5 390.2 248.5 381.9 312.6 326.7 312.6 326.7 502.1C433.7 471.4 512 372.9 512 256Z" fill="#E66914"/></svg>