<svg xmlns="http://www.w3.org/2000/svg" xmlns:xlink="http://www.w3.org/1999/xlink" viewBox="0 0 401.79 163.1"><defs><style>.cls-1{fill:#ee7624;}.cls-2{fill:#e94e1d;}.cls-3{fill:#e1f2fb;}.cls-4{fill:#fdee66;}.cls-5{fill:#f59d19;}.cls-6{fill:#58c3e9;}.cls-7{fill:#ceebfb;}.cls-8{fill:#fcbf05;}.cls-9{fill:#35bad1;}.cls-10{fill:url(#Gradiente_sem_nome_8);}.cls-11{fill:url(#Gradiente_sem_nome_8-2);}.cls-12{fill:url(#Gradiente_sem_nome_19);}.cls-13{font-size:90px;fill:#eb9c3d;font-family:ArialRoundedMTBold, Arial Rounded MT Bold;}.cls-14{letter-spacing:-0.01em;}</style><linearGradient id="Gradiente_sem_nome_8" x1="376.79" y1="85.08" x2="464.62" y2="85.08" gradientTransform="matrix(0.7, 0.04, -0.08, 0.72, 76.65, 28.28)" gradientUnits="userSpaceOnUse"><stop offset="0" stop-color="#fcea10"/><stop offset="1" stop-color="#e94e1b"/></linearGradient><linearGradient id="Gradiente_sem_nome_8-2" x1="344.59" y1="100.33" x2="426.82" y2="100.33" gradientTransform="matrix(0.68, 0.07, 0.07, 0.76, 96.72, 6.08)" xlink:href="#Gradiente_sem_nome_8"/><linearGradient id="Gradiente_sem_nome_19" x1="55.21" y1="87.62" x2="61.31" y2="87.62" gradientUnits="userSpaceOnUse"><stop offset="0" stop-color="#3c3c3b"/><stop offset="1" stop-color="#2a2a29"/></linearGradient></defs><title>Ativo 3</title><g id="Camada_2" data-name="Camada 2"><g id="Camada_1-2" data-name="Camada 1"><path class="cls-1" d="M36.59,88h-.23L3.42,85.89A3.64,3.64,0,0,1,.47,80.46a53.71,53.71,0,0,1,12.22-14C23.38,57.83,35.8,55,48.61,58.36a3.68,3.68,0,0,1,2.4,2,3.62,3.62,0,0,1,0,3.13L39.86,85.92A3.65,3.65,0,0,1,36.59,88Z"/><path class="cls-2" d="M63.14,145.39a3.58,3.58,0,0,1-1.74-.45,3.65,3.65,0,0,1-1.9-3L57.44,109a3.65,3.65,0,0,1,2-3.5l22.41-11.1A3.62,3.62,0,0,1,85,94.38a3.68,3.68,0,0,1,2,2.4c3.33,12.81.54,25.23-8.09,35.92a53.71,53.71,0,0,1-14,12.22A3.58,3.58,0,0,1,63.14,145.39Z"/><path class="cls-3" d="M113.78,55.21l-23.6-23.6a3.63,3.63,0,0,0-3.61-.92C70.77,35.36,57.8,42.69,48,52.47A75.06,75.06,0,0,0,42.19,59,90.58,90.58,0,0,0,29,82.74,118.3,118.3,0,0,0,23.74,101,110.09,110.09,0,0,0,21.3,120.4,3.62,3.62,0,0,0,25,124.09h0a110,110,0,0,0,19.43-2.44,118.3,118.3,0,0,0,18.23-5.29A90.35,90.35,0,0,0,86.34,103.2a73.77,73.77,0,0,0,6.58-5.83C102.7,87.59,110,74.62,114.7,58.82A3.63,3.63,0,0,0,113.78,55.21Z"/><path class="cls-4" d="M46.92,116.15,29.24,98.47a3.66,3.66,0,0,0-4.84-.29A36.17,36.17,0,0,0,21.21,101c-12.3,12.3-12.68,31.36-12.69,32.17a3.62,3.62,0,0,0,3.65,3.69h0c.81,0,19.87-.39,32.17-12.69A36.17,36.17,0,0,0,47.21,121,3.66,3.66,0,0,0,46.92,116.15Z"/><path class="cls-5" d="M29.31,82,18.46,92.86a3.65,3.65,0,0,0,0,5.16l28.91,28.91a3.65,3.65,0,0,0,5.16,0l10.85-10.85Z"/><path class="cls-6" d="M76.67,79.86a11.13,11.13,0,1,1,7.87-3.26A11.09,11.09,0,0,1,76.67,79.86Z"/><path class="cls-6" d="M76.67,83.43a14.72,14.72,0,1,1,10.39-4.31A14.61,14.61,0,0,1,76.67,83.43Zm0-22.11a7.41,7.41,0,1,0,5.23,2.17A7.36,7.36,0,0,0,76.67,61.32Z"/><path class="cls-5" d="M118.57,26.82a3.62,3.62,0,0,0-2.63-1.07,119.61,119.61,0,0,0-29.37,4.94L114.7,58.82a119.61,119.61,0,0,0,4.94-29.37A3.65,3.65,0,0,0,118.57,26.82Z"/><path class="cls-7" d="M113.78,55.21,102,43.41,22.36,123A3.69,3.69,0,0,0,25,124.09h0a110.09,110.09,0,0,0,19.43-2.44,118.3,118.3,0,0,0,18.23-5.29A90.35,90.35,0,0,0,86.34,103.2a75.2,75.2,0,0,0,6.58-5.83C102.7,87.59,110,74.62,114.7,58.82A3.63,3.63,0,0,0,113.78,55.21Z"/><path class="cls-8" d="M46.92,116.15l-8.84-8.84-28.5,28.5h0a3.69,3.69,0,0,0,2.59,1.06h0c.81,0,19.87-.39,32.17-12.69A36.17,36.17,0,0,0,47.21,121,3.66,3.66,0,0,0,46.92,116.15Z"/><path class="cls-1" d="M46.35,99.05,32.92,112.47l14.45,14.46a3.65,3.65,0,0,0,5.16,0l10.85-10.85Z"/><path class="cls-9" d="M84.54,60.85h0L68.79,76.6h0A11.14,11.14,0,0,0,84.54,60.85Z"/><path class="cls-9" d="M87.06,58.33,81.9,63.49A7.4,7.4,0,1,1,71.43,74h0l-5.16,5.16h0A14.7,14.7,0,1,0,87.06,58.33Z"/><path class="cls-1" d="M118.57,26.82,100.64,44.76,114.7,58.82a119.61,119.61,0,0,0,4.94-29.37A3.65,3.65,0,0,0,118.57,26.82Z"/><text/><path class="cls-10" d="M330.23,152l63-96.38a4.72,4.72,0,0,1,6.39-1.38h0a4.42,4.42,0,0,1,1.43,6.2l-63,96.38a4.73,4.73,0,0,1-6.39,1.38h0A4.41,4.41,0,0,1,330.23,152Z"/><path class="cls-11" d="M387.83,158.72,334.4,68.92a4.67,4.67,0,0,1,1.78-6.46l.62-.35a5,5,0,0,1,6.67,1.73l53.43,89.8a4.67,4.67,0,0,1-1.79,6.47l-.62.35A5,5,0,0,1,387.83,158.72Z"/><circle class="cls-12" cx="58.26" cy="87.62" r="3.05"/><text class="cls-13" transform="translate(130.67 136.7)">L<tspan class="cls-14" x="54.36" y="0">a</tspan><tspan x="106.66" y="0">be</tspan></text></g></g></svg>