<svg viewBox="0 0 60.016 60.016" xmlns="http://www.w3.org/2000/svg" xmlns:xlink="http://www.w3.org/1999/xlink" id="Capa_1" overflow="hidden"><path d="M42.008 0 18.008 0C8.083 0 0.008 8.075 0.008 18L0.008 32C0.008 41.59 7.546 49.452 17.008 49.973L17.008 58.317C17.008 59.254 17.772 60.016 18.711 60.016 19.16 60.016 19.585 59.838 19.906 59.517L21.782 57.641C26.708 52.714 33.259 50 40.227 50L42.008 50C51.933 50 60.008 41.925 60.008 32L60.008 18C60.008 8.075 51.933 0 42.008 0ZM17.008 29C14.802 29 13.008 27.206 13.008 25 13.008 22.794 14.802 21 17.008 21 19.214 21 21.008 22.794 21.008 25 21.008 27.206 19.213 29 17.008 29ZM30.008 29C27.802 29 26.008 27.206 26.008 25 26.008 22.794 27.802 21 30.008 21 32.214 21 34.008 22.794 34.008 25 34.008 27.206 32.213 29 30.008 29ZM43.008 29C40.802 29 39.008 27.206 39.008 25 39.008 22.794 40.802 21 43.008 21 45.214 21 47.008 22.794 47.008 25 47.008 27.206 45.213 29 43.008 29Z" fill="#ED7D31"/><g></g><g></g><g></g><g></g><g></g><g></g><g></g><g></g><g></g><g></g><g></g><g></g><g></g><g></g><g></g></svg>