<svg width="32.75" height="32.75" viewBox="0 0 32.75 32.75" xmlns="http://www.w3.org/2000/svg" xmlns:xlink="http://www.w3.org/1999/xlink" id="Capa_1" overflow="hidden"><g><path d="M29.975 22.449 18.964 31.799C18.219 32.434 17.297 32.75 16.375 32.75 15.454 32.75 14.533 32.434 13.786 31.799L2.776 22.449C1.092 21.017 0.886 18.494 2.316 16.81 3.746 15.124 6.271 14.918 7.955 16.351L12.375 20.105 12.375 4C12.375 1.791 14.166 0 16.375 0 18.583 0 20.375 1.791 20.375 4L20.375 20.105 24.796 16.351C26.482 14.921 29.005 15.126 30.435 16.81 31.865 18.494 31.657 21.02 29.975 22.449Z" stroke-width="1.33333" fill="#ED7D31"/></g><g></g><g></g><g></g><g></g><g></g><g></g><g></g><g></g><g></g><g></g><g></g><g></g><g></g><g></g><g></g></svg>