<svg width="32.75" height="32.75" viewBox="0 0 32.75 32.75" xmlns="http://www.w3.org/2000/svg" xmlns:xlink="http://www.w3.org/1999/xlink" id="Capa_1" overflow="hidden"><g><path d="M30.434 15.938C29.643 16.871 28.517 17.349 27.382 17.349 26.469 17.349 25.548 17.037 24.795 16.398L20.374 12.645 20.374 28.75C20.374 30.959 18.583 32.75 16.374 32.75 14.165 32.75 12.374 30.959 12.374 28.75L12.374 12.646 7.954 16.4C6.271 17.831 3.746 17.626 2.315 15.941 0.885 14.257 1.091 11.733 2.775 10.303L13.785 0.952C15.278-0.318 17.471-0.318 18.963 0.952L29.974 10.303C31.658 11.73 31.863 14.255 30.434 15.938Z" stroke-width="1.33333" fill="#ED7D31"/></g><g></g><g></g><g></g><g></g><g></g><g></g><g></g><g></g><g></g><g></g><g></g><g></g><g></g><g></g><g></g></svg>